<?xml version="1.0" standalone="no"?>
<!DOCTYPE svg PUBLIC "-//W3C//DTD SVG 20010904//EN"
 "http://www.w3.org/TR/2001/REC-SVG-20010904/DTD/svg10.dtd">
<svg version="1.0" xmlns="http://www.w3.org/2000/svg"
 width="600.000000pt" height="600.000000pt" viewBox="0 0 600.000000 600.000000"
 preserveAspectRatio="xMidYMid meet">
<metadata>
Created by potrace 1.11, written by Peter Selinger 2001-2013
</metadata>
<g transform="translate(0.000000,600.000000) scale(0.100000,-0.100000)"
fill="#000000" stroke="none">
<path d="M2820 5854 c-91 -53 -226 -131 -300 -173 -74 -43 -180 -104 -235
-136 -55 -32 -113 -65 -130 -75 -16 -9 -88 -51 -160 -92 -71 -42 -146 -85
-165 -96 -83 -47 -236 -135 -385 -222 -88 -51 -245 -142 -350 -202 -104 -60
-197 -114 -205 -119 -54 -33 -222 -129 -225 -129 -2 0 -33 -18 -69 -40 -36
-22 -68 -40 -71 -40 -3 0 -23 -12 -45 -26 l-40 -27 0 -1477 c0 -1394 1 -1478
18 -1492 9 -9 211 -127 447 -263 555 -320 725 -418 915 -528 85 -49 175 -101
200 -115 25 -14 57 -33 72 -43 14 -11 28 -19 31 -19 5 0 338 -191 367 -210 8
-6 22 -13 30 -17 8 -4 43 -24 78 -45 34 -21 64 -38 66 -38 6 0 281 -162 290
-171 32 -30 106 7 606 301 75 44 438 253 490 283 19 11 267 153 550 317 283
163 603 348 710 410 107 62 207 121 222 132 l28 19 0 1472 c0 810 -4 1477 -8
1484 -5 8 -558 333 -797 467 -22 13 -143 83 -270 156 -126 73 -243 141 -260
150 -16 9 -176 102 -355 205 -284 164 -592 342 -685 395 -16 10 -62 36 -101
59 -39 22 -77 41 -85 41 -8 0 -88 -43 -179 -96z"/>
</g>
</svg>
